<mxfile host="app.diagrams.net" modified="2024-02-06T13:07:03.082Z" agent="Mozilla/5.0 (X11; Linux x86_64; rv:103.0) Gecko/20100101 Firefox/103.0" version="23.1.1" etag="clwAdicch8KiIIDYL5vs" type="github">
  <diagram name="PÃ¡gina-1" id="EQkebMg_xmn-xBNWHfnF">
    <mxGraphModel>
      <root>
        <mxCell id="0" />
        <mxCell id="1" parent="0" />
      </root>
    </mxGraphModel>
  </diagram>
</mxfile>
